<svg width="28" height="28" viewBox="0 0 28 28" fill="none" xmlns="http://www.w3.org/2000/svg">
<path d="M25.6667 8.86666H25.2V5.6C25.1985 4.312 24.1547 3.26818 22.8667 3.26666H5.13333C3.84533 3.26818 2.80152 4.312 2.8 5.6V8.86666H2.33333C1.04533 8.86818 0.00151667 9.912 0 11.2V18.6667C0.00151667 19.9547 1.04533 20.9985 2.33333 21H2.8V24.2667C2.8 24.5244 3.00895 24.7333 3.26667 24.7333H4.2C4.39466 24.7334 4.56896 24.6128 4.63727 24.4305L5.9234 21H22.0766L23.3627 24.4305C23.431 24.6128 23.6053 24.7334 23.8 24.7333H24.7333C24.9911 24.7333 25.2 24.5244 25.2 24.2667V21H25.6667C26.9547 20.9985 27.9985 19.9547 28 18.6667V11.2C27.9985 9.912 26.9547 8.86818 25.6667 8.86666ZM3.73333 5.6C3.73333 4.82679 4.36013 4.2 5.13333 4.2H22.8667C23.6399 4.2 24.2667 4.82679 24.2667 5.6V8.86666H22.8667C22.6089 8.86666 22.4 9.07561 22.4 9.33333V14.4667H5.6V9.33333C5.6 9.07561 5.39105 8.86666 5.13333 8.86666H3.73333V5.6ZM0.933333 11.2C0.933333 10.4268 1.56012 9.8 2.33333 9.8H4.66667V14.4667H0.933333V11.2ZM3.8766 23.8H3.73333V21H4.9266L3.8766 23.8ZM24.2667 23.8H24.1234L23.0734 21H24.2667V23.8ZM27.0667 18.6667C27.0667 19.4399 26.4399 20.0667 25.6667 20.0667H2.33333C1.56012 20.0667 0.933333 19.4399 0.933333 18.6667V15.4H27.0667V18.6667ZM27.0667 14.4667H23.3333V9.8H25.6667C26.4399 9.8 27.0667 10.4268 27.0667 11.2V14.4667Z" fill="#909090"/>
</svg>
