<svg width="28" height="28" viewBox="0 0 28 28" fill="none" xmlns="http://www.w3.org/2000/svg">
<path d="M27.125 18.8125H26.6875V15.3125C26.6869 14.8486 26.5023 14.4038 26.1743 14.0757C25.8462 13.7477 25.4014 13.5631 24.9375 13.5625V6.125C24.9369 5.66106 24.7523 5.21629 24.4243 4.88823C24.0962 4.56018 23.6514 4.37561 23.1875 4.375H4.8125C4.34856 4.37561 3.90379 4.56018 3.57573 4.88823C3.24768 5.21629 3.06311 5.66106 3.0625 6.125V13.5625C2.59856 13.5631 2.15379 13.7477 1.82573 14.0757C1.49768 14.4038 1.31311 14.8486 1.3125 15.3125V18.8125H0.875C0.758968 18.8125 0.647688 18.8586 0.565641 18.9406C0.483594 19.0227 0.4375 19.134 0.4375 19.25V21C0.4375 21.116 0.483594 21.2273 0.565641 21.3094C0.647688 21.3914 0.758968 21.4375 0.875 21.4375H1.3125V23.1875C1.3125 23.3035 1.35859 23.4148 1.44064 23.4969C1.52269 23.5789 1.63397 23.625 1.75 23.625H3.0625C3.16361 23.625 3.26162 23.59 3.3398 23.5259C3.41798 23.4618 3.47151 23.3725 3.49125 23.2734L3.85875 21.4375H24.1413L24.5088 23.2734C24.5285 23.3725 24.582 23.4618 24.6602 23.5259C24.7384 23.59 24.8364 23.625 24.9375 23.625H26.25C26.366 23.625 26.4773 23.5789 26.5594 23.4969C26.6414 23.4148 26.6875 23.3035 26.6875 23.1875V21.4375H27.125C27.241 21.4375 27.3523 21.3914 27.4344 21.3094C27.5164 21.2273 27.5625 21.116 27.5625 21V19.25C27.5625 19.134 27.5164 19.0227 27.4344 18.9406C27.3523 18.8586 27.241 18.8125 27.125 18.8125ZM3.9375 6.125C3.9378 5.89303 4.03009 5.67065 4.19412 5.50662C4.35815 5.34259 4.58053 5.2503 4.8125 5.25H23.1875C23.4195 5.2503 23.6419 5.34259 23.8059 5.50662C23.9699 5.67065 24.0622 5.89303 24.0625 6.125V13.5625H23.1875V11.8125C23.1869 11.3486 23.0023 10.9038 22.6743 10.5757C22.3462 10.2477 21.9014 10.0631 21.4375 10.0625H16.1875C15.7236 10.0631 15.2788 10.2477 14.9507 10.5757C14.6227 10.9038 14.4381 11.3486 14.4375 11.8125V13.5625H13.5625V11.8125C13.5619 11.3486 13.3773 10.9038 13.0493 10.5757C12.7212 10.2477 12.2764 10.0631 11.8125 10.0625H6.5625C6.09856 10.0631 5.65379 10.2477 5.32573 10.5757C4.99768 10.9038 4.81311 11.3486 4.8125 11.8125V13.5625H3.9375V6.125ZM22.3125 11.8125V13.5625H15.3125V11.8125C15.3128 11.5805 15.4051 11.3581 15.5691 11.1941C15.7331 11.0301 15.9555 10.9378 16.1875 10.9375H21.4375C21.6695 10.9378 21.8919 11.0301 22.0559 11.1941C22.2199 11.3581 22.3122 11.5805 22.3125 11.8125ZM12.6875 11.8125V13.5625H5.6875V11.8125C5.6878 11.5805 5.78009 11.3581 5.94412 11.1941C6.10815 11.0301 6.33053 10.9378 6.5625 10.9375H11.8125C12.0445 10.9378 12.2669 11.0301 12.4309 11.1941C12.5949 11.3581 12.6872 11.5805 12.6875 11.8125ZM2.1875 15.3125C2.1878 15.0805 2.28009 14.8581 2.44412 14.6941C2.60815 14.5301 2.83053 14.4378 3.0625 14.4375H24.9375C25.1695 14.4378 25.3919 14.5301 25.5559 14.6941C25.7199 14.8581 25.8122 15.0805 25.8125 15.3125V18.8125H2.1875V15.3125ZM2.70375 22.75H2.1875V21.4375H2.96625L2.70375 22.75ZM25.8125 22.75H25.2962L25.0338 21.4375H25.8125V22.75ZM26.6875 20.5625H1.3125V19.6875H26.6875V20.5625Z" fill="#909090"/>
</svg>
