<svg width="17" height="20" viewBox="0 0 17 20" fill="none" xmlns="http://www.w3.org/2000/svg">
<path d="M1.4972 19.2499H1.49697C1.41812 19.2499 1.36608 19.2157 1.34069 19.1814C1.2936 19.1176 1.25 19.0186 1.25 18.8638V1.69774C1.25 1.2668 1.71468 0.75 2.3818 0.75H14.6849C15.3157 0.75 15.75 1.23343 15.75 1.69774V18.8639C15.75 19.1034 15.6815 19.1879 15.6626 19.2076C15.6408 19.2303 15.6058 19.25 15.5466 19.25C15.4832 19.25 15.3607 19.2254 15.1658 19.0684L15.1651 19.0679L9.67986 14.6616C9.67964 14.6614 9.67942 14.6612 9.67919 14.661C9.67916 14.661 9.67913 14.661 9.6791 14.6609C9.35412 14.3995 8.93655 14.2799 8.5414 14.2799C8.14689 14.2799 7.72863 14.3991 7.40369 14.6605C7.40339 14.6607 7.40309 14.661 7.40279 14.6612L1.90009 19.0679L1.89836 19.0693C1.71683 19.2155 1.5733 19.2499 1.4972 19.2499Z"  stroke-width="1.5"/>
</svg>
