<svg width="24" height="24" viewBox="0 0 24 24" fill="none" xmlns="http://www.w3.org/2000/svg">
<path fill-rule="evenodd" clip-rule="evenodd" d="M12 22C17.5228 22 22 17.5228 22 12C22 6.47715 17.5228 2 12 2C6.47715 2 2 6.47715 2 12C2 17.5228 6.47715 22 12 22ZM11.7436 10.9121L14.2766 8.37915C14.577 8.07875 15.064 8.07875 15.3644 8.37915C15.6648 8.67955 15.6648 9.1666 15.3644 9.46701L12.8314 12L15.3645 14.533C15.6649 14.8334 15.6649 15.3205 15.3645 15.6209C15.0641 15.9213 14.577 15.9213 14.2766 15.6209L11.7436 13.0879L9.21059 15.6209C8.91019 15.9213 8.42314 15.9213 8.12274 15.6209C7.82233 15.3204 7.82233 14.8334 8.12274 14.533L10.6557 12L8.12276 9.46703C7.82236 9.16663 7.82236 8.67958 8.12276 8.37917C8.42317 8.07877 8.91022 8.07877 9.21062 8.37917L11.7436 10.9121ZM3.53846 12C3.53846 16.6732 7.32682 20.4615 12 20.4615C16.6732 20.4615 20.4615 16.6732 20.4615 12C20.4615 7.32682 16.6732 3.53846 12 3.53846C7.32682 3.53846 3.53846 7.32682 3.53846 12Z" fill="#4F63AC"/>
</svg>
