<svg xmlns="http://www.w3.org/2000/svg" width="28" height="28" viewBox="0 0 512 512">
  <path d="M432 192h-40V120a40 40 0 00-40-40H160a40 40 0 00-40 40v72H80a16 16 0 00-16 16v208a16 16 0 0016 16h352a16 16 0 0016-16V208a16 16 0 00-16-16zm-272-72a8 8 0 018-8h192a8 8 0 018 8v72H160zm-40 224a16 16 0 1116-16 16 16 0 01-16 16zm240 0a16 16 0 1116-16 16 16 0 01-16 16zm70.6-109.9l-44.1-44.1A64 64 0 00384 176h-40V92a36 36 0 00-36-36H204a36 36 0 00-36 36v84H88a24 24 0 00-24 24v160a24 24 0 0024 24h352a24 24 0 0024-24V240a24 24 0 00-16.4-22.9z"/>
</svg>
