<svg xmlns="http://www.w3.org/2000/svg" viewBox="0 0 512 512" width="28" height="28">
  <path d="M416 288h-12v-16c0-35.3-28.7-64-64-64H252c-53 0-96-43-96-96V48c0-26.5-21.5-48-48-48S60 21.5 60 48v60c0 53-43 96-96 96H52c-35.3 0-64 28.7-64 64v16H8c-13.3 0-24 10.7-24 24s10.7 24 24 24h16v192c0 13.3 10.7 24 24 24h128v-16c0-8.8 7.2-16 16-16h128c8.8 0 16 7.2 16 16v16h128c13.3 0 24-10.7 24-24V352h16c13.3 0 24-10.7 24-24s-10.7-24-24-24zM320 96v56c0 39.8 32.2 72 72 72h12v64H252c-22.1 0-40 17.9-40 40s17.9 40 40 40h140c22.1 0 40-17.9 40-40v-64h12c39.8 0 72-32.2 72-72V96H320zm-96 256v112H80V352h144z"/>
</svg>
