<svg width="24" height="24" viewBox="0 0 24 24" fill="none" xmlns="http://www.w3.org/2000/svg">
<path fill-rule="evenodd" clip-rule="evenodd" d="M4.2926 17.6855C4.0826 17.4755 3.9776 17.1835 4.0036 16.8875L4.3826 12.7175C4.4246 12.2605 4.6266 11.8295 4.9526 11.5035L13.9486 2.5075C14.6506 1.8025 15.9236 1.8375 16.6646 2.5765L19.4026 5.3145L19.4036 5.3155C20.1686 6.0815 20.1996 7.2995 19.4716 8.0295L10.4746 17.0265C10.1496 17.3515 9.7186 17.5535 9.2606 17.5955L5.0906 17.9745C5.0606 17.9765 5.0306 17.9775 4.9996 17.9775C4.7366 17.9775 4.4816 17.8735 4.2926 17.6855ZM16.0186 8.6565L13.3236 5.9615L15.2716 4.0125L17.9656 6.7065L16.0186 8.6565ZM9.0796 15.6025L6.1026 15.8735L6.3666 12.9175L11.9836 7.3005L14.6796 9.9975L9.0796 15.6025ZM18.9996 21.9775C19.5496 21.9775 19.9996 21.5275 19.9996 20.9775C19.9996 20.4285 19.5496 19.9775 18.9996 19.9775H4.9996C4.4506 19.9775 3.9996 20.4285 3.9996 20.9775C3.9996 21.5275 4.4506 21.9775 4.9996 21.9775H18.9996Z" fill="#808080"/>
</svg>
