<svg width="24" height="20" viewBox="0 0 24 20" fill="none" xmlns="http://www.w3.org/2000/svg">
<path fill-rule="evenodd" clip-rule="evenodd" d="M2.0319 0L0.514922 1.32082L4.87503 5.11712C4.46884 5.41021 4.06687 5.72498 3.66932 6.05971C2.77984 6.80865 1.97514 7.60822 1.26676 8.40813C0.839298 8.89082 0.535806 9.27052 0.36964 9.49673L0 9.99995L0.36964 10.5032C0.535806 10.7294 0.839298 11.1091 1.26676 11.5918C1.97514 12.3917 2.77984 13.1912 3.66932 13.9402C6.27655 16.1355 9.0742 17.4716 12 17.4716C13.8459 17.4716 15.6409 16.9397 17.3693 15.9957L21.9682 20L23.4852 18.6792L2.0319 0ZM15.8022 14.6313L14.1797 13.2186C13.5408 13.5473 12.7957 13.7359 11.9999 13.7359C9.63022 13.7359 7.70923 12.0633 7.70923 10C7.70923 9.30717 7.92586 8.65836 8.30337 8.10214L6.40037 6.44521C5.98481 6.737 5.57124 7.05677 5.16068 7.40247C4.35167 8.08365 3.61427 8.81636 2.96569 9.54873C2.82561 9.7069 2.69617 9.85782 2.57783 9.99995C2.69617 10.1421 2.82561 10.293 2.96569 10.4512C3.61427 11.1835 4.35167 11.9162 5.16068 12.5974C7.40625 14.4882 9.74191 15.6037 12 15.6037C13.253 15.6037 14.53 15.2602 15.8022 14.6313ZM9.92727 9.51606C9.87985 9.67042 9.85456 9.83266 9.85456 10C9.85456 11.0317 10.8151 11.868 11.9999 11.868C12.1921 11.868 12.3785 11.8459 12.5558 11.8046L9.92727 9.51606ZM20.6866 13.634L19.1696 12.3132C19.8498 11.7145 20.4751 11.0827 21.0343 10.4513C21.1744 10.2931 21.3038 10.1422 21.4222 10C21.3038 9.85791 21.1744 9.707 21.0343 9.54882C20.3857 8.81645 19.6483 8.08375 18.8393 7.40256C16.5938 5.51178 14.2581 4.39629 12 4.39629C11.4398 4.39629 10.8748 4.46496 10.3075 4.5971L8.61059 3.1196C9.71806 2.73512 10.8491 2.52837 12 2.52837C14.9258 2.52837 17.7234 3.86451 20.3307 6.05981C21.2202 6.80875 22.0249 7.60832 22.7332 8.40822C23.1607 8.89091 23.4642 9.27061 23.6304 9.49683L24 10L23.6304 10.5033C23.4642 10.7295 23.1607 11.1092 22.7332 11.5919C22.1206 12.2837 21.4359 12.9753 20.6866 13.634Z" fill="#C5C5C5"/>
</svg>
