<svg xmlns="http://www.w3.org/2000/svg" width="28" height="28" viewBox="0 0 512 512">
  <path d="M496 408c13.3 0 24-10.7 24-24V128c0-70.7-57.3-128-128-128H120C49.3 0 0 49.3 0 120v264c0 70.7 57.3 128 128 128h368zm-160 56H176c-4.4 0-8-3.6-8-8s3.6-8 8-8h160c4.4 0 8 3.6 8 8s-3.6 8-8 8zm128-128H64V136c0-39.8 32.2-72 72-72h256c39.8 0 72 32.2 72 72v200zm-40 80H104c-4.4 0-8-3.6-8-8V144c0-26.5 21.5-48 48-48h256c26.5 0 48 21.5 48 48v264c0 4.4-3.6 8-8 8zm-64-64H168c-4.4 0-8-3.6-8-8s3.6-8 8-8h224c4.4 0 8 3.6 8 8s-3.6 8-8 8zm0-64H168c-4.4 0-8-3.6-8-8s3.6-8 8-8h224c4.4 0 8 3.6 8 8s-3.6 8-8 8zm0-64H168c-4.4 0-8-3.6-8-8s3.6-8 8-8h224c4.4 0 8 3.6 8 8s-3.6 8-8 8z"/>
</svg>
