<svg width="19" height="18" viewBox="0 0 19 18" fill="none" xmlns="http://www.w3.org/2000/svg">
<path fill-rule="evenodd" clip-rule="evenodd" d="M17 18C17 18 18.5 18 18.5 16.5C18.5 15 17 10.5 9.5 10.5C2 10.5 0.5 15 0.5 16.5C0.5 18 2 18 2 18H17ZM2.0075 16.584V16.581V16.584ZM2.033 16.5H16.967C16.974 16.4992 16.981 16.4982 16.988 16.497L17 16.494C16.9985 16.125 16.769 15.015 15.752 13.998C14.774 13.02 12.9335 12 9.5 12C6.065 12 4.226 13.02 3.248 13.998C2.231 15.015 2.003 16.125 2 16.494C2.01098 16.4961 2.02198 16.4981 2.033 16.5ZM16.994 16.584V16.581V16.584ZM9.5 7.5C10.2956 7.5 11.0587 7.18393 11.6213 6.62132C12.1839 6.05871 12.5 5.29565 12.5 4.5C12.5 3.70435 12.1839 2.94129 11.6213 2.37868C11.0587 1.81607 10.2956 1.5 9.5 1.5C8.70435 1.5 7.94129 1.81607 7.37868 2.37868C6.81607 2.94129 6.5 3.70435 6.5 4.5C6.5 5.29565 6.81607 6.05871 7.37868 6.62132C7.94129 7.18393 8.70435 7.5 9.5 7.5ZM14 4.5C14 5.69347 13.5259 6.83807 12.682 7.68198C11.8381 8.52589 10.6935 9 9.5 9C8.30653 9 7.16193 8.52589 6.31802 7.68198C5.47411 6.83807 5 5.69347 5 4.5C5 3.30653 5.47411 2.16193 6.31802 1.31802C7.16193 0.474106 8.30653 0 9.5 0C10.6935 0 11.8381 0.474106 12.682 1.31802C13.5259 2.16193 14 3.30653 14 4.5Z" fill="#999999"/>
</svg>
