<svg width="28" height="28" viewBox="0 0 28 28" fill="none" xmlns="http://www.w3.org/2000/svg">
<path d="M27.5625 3.9375H0.4375C0.195891 3.9375 0 4.13339 0 4.375V7C0 7.24161 0.195891 7.4375 0.4375 7.4375H1.75V23.625C1.75 23.8666 1.94589 24.0625 2.1875 24.0625H3.9375C4.17911 24.0625 4.375 23.8666 4.375 23.625V7.4375H23.625V23.625C23.625 23.8666 23.8209 24.0625 24.0625 24.0625H25.8125C26.0541 24.0625 26.25 23.8666 26.25 23.625V7.4375H27.5625C27.8041 7.4375 28 7.24161 28 7V4.375C28 4.13339 27.8041 3.9375 27.5625 3.9375ZM27.125 6.5625H25.8125C25.5709 6.5625 25.375 6.75839 25.375 7V23.1875H24.5V7C24.5 6.75839 24.3041 6.5625 24.0625 6.5625H3.9375C3.69589 6.5625 3.5 6.75839 3.5 7V23.1875H2.625V7C2.625 6.75839 2.42911 6.5625 2.1875 6.5625H0.875V4.8125H27.125V6.5625Z" fill="#909090"/>
</svg>
